<svg xmlns="http://www.w3.org/2000/svg" width="815" height="270" viewBox="0 0 815 270"><defs><style>.cls-1{fill:#fff;}.cls-2{fill:#e5e5e5;}.cls-3{fill:#4bdeb4;}.cls-4{fill:#c7c7c7;}.cls-5{fill:#fcb033;}.cls-6{fill:#ff6042;}.cls-7{fill:#9a6125;}</style></defs><title>hero_auto</title><g id="auto"><path class="cls-1" d="M647,39s-16.52-5.38-23.26-11.69S599,10,599,10l-3.63-2.79s-5-4.86-8.17-4.54S576,1,574,4s-4,1-4,4c0,.68,6.28,2.55,9.14,1.28s4.69.27,5.28,0,15.94,13.48,15.94,13.48,15.27,20.47,19.95,22.35S637,59,645,59,647,39,647,39Z"/><rect class="cls-2" x="548.01" y="106.3" width="213.07" height="130.71"/><path class="cls-3" d="M629.82,240.08s-.28-13.67,9-20.17a27.81,27.81,0,0,1,18.27-5.26s5.54-12.46,21-11.9,18.13,16.19,18.13,16.19,1.73-5.75,9.07-5.88,8.79,6.85,8.79,6.85,3.32-5.54,12.17-5.95c0,0,1.53-16.89,15.64-16.89s14.4,19.38,14.4,19.38,13.39.32,16.33,10c2.49,8.17,0,13.67,0,13.67Z"/><path class="cls-4" d="M784,257.94c-.08-6.51-.16-12.31-.23-16.75l-17.65.11-16.79.06c-14.23.06-28.28-.17-42.46-.22-14.85,0-29.39.34-44.11,0-16.16-.35-32.39-.07-48.64,0-16.7.09-33-.18-49.59-.38-15.55-.18-7.24-1.1,2-1.46,27.88-1.09,65.57-.22,94.78-.15l64.55,0,29.22,0,30.8-.11c0,1.9,0,2.91,0,3.88.05,5.4-.08,11.39-.29,16.41a45.9,45.9,0,0,1-.88,6.26C784.3,263.43,783.93,256.3,784,257.94Z"/><path class="cls-3" d="M584,209.44c10.38,0,17.19,12.25,17.19,12.25a24.4,24.4,0,0,1,18.72,2.56c9.2,5.61,7.66,15.83,7.66,15.83H555.88V215.4S572.05,209.44,584,209.44Z"/><path d="M604.21,12.54c4,2.25,6.33,3.95,9,5.76,2.36,1.59,4.52,3.41,6.81,5.09s5,3.13,7.2,5.08a34.07,34.07,0,0,0,3.89,2.89,43.17,43.17,0,0,0,4.12,2.4c2.88,1.47,5.77,2.92,8.82,4.12,2.88,1.07,1.08,1.51-.84,1.27a25.42,25.42,0,0,1-9-3.25A39.17,39.17,0,0,1,630.08,33c-1.3-1-2.54-1.93-3.73-2.79-4.34-3.15-6.16-4.37-10.52-7.48-2.5-1.78-7.6-5.34-10.21-7a14.87,14.87,0,0,1-2.55-2.07c-.4-.41-.38-1-.55-1.43A4.57,4.57,0,0,1,604.21,12.54Z"/><path d="M670,111.58s1.34,54.23,1.93,62.55,2.83,45.24,3.27,50.63.89,27.57.89,27.57,3.09,2.58,9.33,2,8.2-2.14,8.2-2.14-.29-47,0-52.94.6-46.11.6-46.11,6.73,41.06,7.6,52.8,4.73,31.19,5,35.06,1.85,12.63,1.85,12.63a21.52,21.52,0,0,0,9.29.57,15.08,15.08,0,0,0,7.87-3.42s-6.09-78.42-6.83-89.71-2.82-52.6-2.82-52.6Z"/><path class="cls-5" d="M712.4,41.1a45,45,0,0,0-17.62-2H682s-1.24-.19-6-.67-12.54.16-20.16,0-10.4-1.56-10.4-1.56c-7.15,9.28-3.63,25.72-3.63,25.72,5.09,1.76,17.41,2.93,22.5,5.87s4.11,43.83,4.11,43.83,6.26,5.28,22.62,4.7,26.5-6.66,26.5-6.66a97.24,97.24,0,0,0-.79-16.24c-1.17-8.41-.23-24.7-.23-24.7L712.4,41.1"/><path d="M680,17.32s-1.76-7.46,2.31-10.94,10.14-1.59,13.45-2.89,6.43-4.83,10.61-2.95.42,7.38.42,7.38a3.39,3.39,0,0,1,2.47,3c.3,2.57-3.84,5.17-6.49,5.37l-19.23,4.83Z"/><ellipse cx="276.74" cy="193.1" rx="32.24" ry="37.96"/><ellipse cx="252.03" cy="218.63" rx="50.27" ry="51.37"/><ellipse cx="271.14" cy="218.63" rx="50.27" ry="51.37"/><path d="M533.44,270a58.5,58.5,0,0,0,18.25-18c7.65-12,8.61-29.14,8.61-29.14l4.34-62.7-52.1-11.48-50.92,34.44-2.07,41.6S460.73,257.05,481,270Z"/><path d="M18.63,221.07s5.69,45.78,49.77,45.78,50.91-45.78,50.91-45.78Z"/><path class="cls-6" d="M372.74,42S404.51,7.05,409.61,5s37.46-.9,54.85-1.2,75.53,2.1,89.62,2.1,48.56,2.7,48.86,3.9-4.8,17.08-6,18.28-35.66,6.89-35.66,6.89L521.84,80.24Z"/><path class="cls-1" d="M390.38,43.26s18.38-22.29,26.71-24,55.62,1.25,72,1.85,54.64.11,54.64,1.58S507.5,62.87,507.5,62.87Z"/><path d="M507.74,63.57l-.35,0L389.15,43.72l.72-.88c.76-.91,18.63-22.49,27.09-24.23,6.45-1.33,35.34.08,56.43,1.11,6.39.31,11.91.58,15.76.72,5.88.22,14.72.3,23.28.37,30.72.27,32,.61,32,1.87,0,1.43-19.82,22.89-36.44,40.64ZM391.63,42.8,507.26,62.16c13.35-14.25,32.9-35.45,35.58-39.18-3.11-.62-18.16-.75-30.42-.85-8.57-.08-17.42-.15-23.32-.37-3.86-.14-9.38-.41-15.77-.72-19.84-1-49.81-2.44-56.11-1.14C410.14,21.36,395.12,38.68,391.63,42.8Z"/><path class="cls-6" d="M125.33,103.91s82.36-50.27,105.9-58.41,95.35-9.1,135.6-7.26,145.6,15,145.6,19.66-5.22,10.75-5.22,10.75,43.56,34.95,49.32,36.86,18.64,6,20,10.15,7.68,87.16,0,98.68-16.45,13.15-16.45,13.15,5.76-69.35-38.37-69.35-46.33,71.55-46.33,71.55H323s-.83-41.94-20.29-48c0,0-7.95-19.46-28.37-19.46-37.42,0-45.91,67.43-45.91,67.43s-104.17,1.37-129.93,1.37H2S-.47,225.3.08,222.83,3.37,211.6,3.37,211.6,2,172.12,5.56,164.45s14.26-18.64,14.26-18.64,2.19-10.69,9-15.63S125.33,103.91,125.33,103.91Z"/><path class="cls-1" d="M125.33,103.91l-.4.09c9.33.48,52.15,2.63,84.29,3.55,36.28,1,86.28,4.4,89.65,6.74,0,0,28-34.47,57.27-60.38,0,0-74.89-3.62-90.17-3.36-12,.2-38.85,1.22-49.84,1.65C183.61,68.34,125.33,103.91,125.33,103.91Z"/><path d="M163.88,162.48c13-2.83,21.41-4.2,30.75-5.92,8.2-1.48,16.35-2.65,24.55-4,8.57-1.44,16.9-3.29,25.43-4.5,9.37-1.36,18.69-3.29,27.93-5.4,1.18-.27,2.36-.56,3.49-.87l.85-.24.71-.26a13.15,13.15,0,0,0,1.35-.85,31.51,31.51,0,0,0,4.91-4.95,124.67,124.67,0,0,0,8.43-11.64c2.45-3.82,3.17-4.62,3.07-3.81a26.57,26.57,0,0,1-2.45,5.58,82.18,82.18,0,0,1-7.2,11.17,32.28,32.28,0,0,1-5,5.34,10.94,10.94,0,0,1-1.68,1.13,4.26,4.26,0,0,1-1,.43,7.84,7.84,0,0,1-.95.3c-1.22.36-2.4.61-3.6.88-9.56,2-19.24,3.48-27.67,5l-37.25,6.52c-8.86,1.52-26.82,4.65-35.68,6.38-3.1.61-6.57,1.12-9.48,1.5a25.5,25.5,0,0,1-3.77,0A22.73,22.73,0,0,1,163.88,162.48Z"/><path d="M24.07,152.58l4.82,6.48,1,1.32s.06.06.1,0l.62,0c1.19-.06,2.33-.09,3.43-.09,4.42-.06,8.39,0,12.59,0,7.36.06,14.62.46,21.95.69,7.67.23,15.2,0,22.8.57,8.34.58,16.73.54,25.13.71,8.64.17,17.07.7,25.62,1.16,8,.44,3.7,1.23-1.09,1.44-14.43.63-33.88-.81-49-1.31-13.84-.45-19.51-.53-33.35-.86-4-.1-10-.22-16-.28-3,0-6,0-8.75,0-1.38,0-2.67,0-3.86.1l-.81,0-.39,0c-.13,0-.17-.18-.26-.27l-.72-1L27,160c-1.64-2.26-3.33-4.85-4.65-7.1a12.87,12.87,0,0,1-1.15-3.15A25.88,25.88,0,0,1,24.07,152.58Z"/><path class="cls-2" d="M222.9,153,204.83,180.9,129,196s-6.7-8.14-8.38-9.21-90.44-2.28-90.44-2.28-6.7,7.18-9.1,7.18S3.44,179.51,3.44,179.51s-.17-10,1.78-15c2.74-7,14.6-18.74,14.6-18.74l9.52,15.76,134.54,1.8Z"/><path d="M15,187.15c1.53,1,3.06,2.09,4.56,2.92a10.76,10.76,0,0,0,1.09.53,1,1,0,0,0,.24.08l.15,0c.05,0,.15,0,.26-.05a7.26,7.26,0,0,0,1.9-1.11,36.45,36.45,0,0,0,3.43-3c.52-.5,1-1,1.47-1.45l.67-.69.94-1,22.34.23L71.5,184c12.38.21,23.83.43,35.78.77l6.49.23c2.2.11,4.28.17,6.6.44a3.66,3.66,0,0,1,.86.26,3.82,3.82,0,0,1,.47.33c.27.22.47.41.69.61.41.4.8.8,1.18,1.2q1.13,1.22,2.19,2.43l2.12,2.47,1,1.24.52.62,0,0L178.58,185l25.57-5.14,16.23-25.2-16.87,2.83-19.73,3.3L164,164.29l-47.86-.46c-14.61-.16-29.06-.39-43.48-.66l-43.69-.87-1.62-2.72c-7-11.84-8.58-14.89-7.25-13.25.67.82,2.05,2.81,3.81,5.46l2.89,4.4,3,4.65h.48c19.53-.16,41.72,0,64.64.32l34.69.56,34.23.63L200.61,156l24.09-4.19-19.35,29.84-60,11.94-16.67,3.32-2-2.39-1.74-2c-1.19-1.36-2.43-2.78-3.76-4.11l-.49-.47c-.18-.16-.33-.28-.47-.39l0,0h0c-.36.54.48-.77.31-.51a4,4,0,0,0-.33.52h0l0,0-.24,0-.69-.08c-1-.08-2-.14-3-.19l-6.14-.26c-8.34-.28-17.16-.48-25.88-.65-17.44-.35-34.45-.58-46.31-.7l-7.26-.1-.68.69-1,1c-.68.66-1.38,1.31-2.11,1.94A26.67,26.67,0,0,1,24.54,191a9.46,9.46,0,0,1-2.73,1.51,2.78,2.78,0,0,1-1.09.07,4.09,4.09,0,0,1-.86-.29,12.35,12.35,0,0,1-1.31-.69c-.81-.48-1.58-1-2.32-1.5-1.49-1-2.9-2.08-4.24-3.11a94.15,94.15,0,0,1-8.46-7.58c1.69,1.05,5.13,3.48,7.89,5.35S16.24,188,15,187.15Z"/><path d="M193.64,217.49c-3.22-3-6.23-5.61-9.16-7.82a20,20,0,0,0-4.32-2.59,3.76,3.76,0,0,0-1.07-.21c-.19,0-.36-.05-.56-.06l-.62,0c-.82,0-1.63-.06-2.46,0-6.56,0-12.56.32-18.86.58-11.06.48-22,.73-33.07,1-5.79.13-11.52.32-17.25.34s-11.44-.19-17.17-.56c-12.57-.82-25.21-1.15-37.86-1.59-6.49-.21-12.93-.53-19.3-.64-.8,0-1.58,0-2.36,0a9,9,0,0,0-1.1.06,2.44,2.44,0,0,0-1,.2,25.39,25.39,0,0,0-4,2.27c-2.64,1.75-5.23,3.66-7.79,5.6-4.8,3.67-6,4.4-5.45,3.52a46.44,46.44,0,0,1,5.78-5.64c2.08-1.77,4.28-3.57,6.69-5.31a24.56,24.56,0,0,1,4-2.44,4.27,4.27,0,0,1,1.32-.33c.22,0,.47-.07.67-.08l.59,0c.79,0,1.58-.08,2.35-.08,6.22-.06,12.63.22,19.08.52,12.89.62,25.89,1.47,37.26,1.95,20.84.94,29.34.51,50.19-.2l24.07-.94c4.53-.17,9.06-.33,13.24-.32,1,0,2.09.06,3.09.08.53.05,1.09.13,1.61.2a10.6,10.6,0,0,1,1.5.56,28.19,28.19,0,0,1,4.38,2.85,77.34,77.34,0,0,1,9.42,8.79,24.37,24.37,0,0,1,2.83,4.09C196.89,220.25,192.67,216.66,193.64,217.49Z"/><path class="cls-1" d="M377.24,53.84l50,3c16.65,1,41.64,2,48.2,4.29S517.3,85.39,519.57,92s2.27,9.34,2.27,9.34-75,8.58-93.62,11.36-74.45,9.59-81.77,11.1a34.75,34.75,0,0,1-13.63,0s2.78-13.63,6.81-22S374,54.85,377.24,53.84Z"/><path class="cls-1" d="M423.42,58.64s11.61,15.14,15.9,50.47"/><path d="M438.23,107.63c-.92-4.63-1.5-7.61-2.16-10.92-.33-1.44-.59-2.89-.84-4.34s-.56-2.89-.88-4.33-.85-3-1.3-4.4-.95-2.9-1.26-4.4a30.29,30.29,0,0,0-1.52-4.82c-.66-1.55-1.33-3.1-2.07-4.61-1.45-3.13-2.72-6.28-4.37-9.28-.78-1.4-.8-1.82-.4-1.8a4.28,4.28,0,0,1,1.87,1.38,29.34,29.34,0,0,1,5,8.62c.69,1.62,1.23,3.31,1.8,4.92s1,3.2,1.47,4.68.77,2.51,1.1,3.56l.84,3c.56,1.91,1,3.85,1.67,6.6.31,1.59.88,4,1.32,6.38s.93,4.81,1.18,6.42a15,15,0,0,1,.19,3.46c0,.6-.45,1-.7,1.41A5,5,0,0,1,438.23,107.63Z"/><path d="M444.7,210.77c-.1-9,.2-14.73.42-21.13.2-5.62.71-11.16,1.05-16.75.35-5.86.27-11.62.9-17.41.69-6.35.77-12.77,1.05-19.19.07-1.54.15-3.07.25-4.6l.16-2.28.09-1.14.05-.57c0-.13,0-.1,0-.13v-.06l-5.85-8.16c-3.58-5-.85-2.94,1.65-.26,1,1.09,2.05,2.26,3.09,3.49l1.57,1.88.79,1,1.08,1.36c-.06,1.3-.13,2.62-.19,4-.07,1.17-.14,2.35-.22,3.54-.17,2.38-.34,4.77-.52,7.14-.37,4.75-.76,9.39-1,13.6-.65,10.57-.81,14.9-1.36,25.47-.31,6-.86,18.33-.94,24.41a60.36,60.36,0,0,1-.47,6.46,8.71,8.71,0,0,1-.92,2.46A15.21,15.21,0,0,1,444.7,210.77Z"/><path d="M540.65,115.45c-10.87.82-19.79,1.83-27.93,2.76s-15.5,1.9-23.24,3.06c-13.57,2-27,3.92-40.53,6.06-14.16,2.24-27.95,4.94-42,7-15.43,2.31-30.85,5.22-46.19,8.33-7.89,1.79-15.83,3-23.71,4.09s-15.78,2.06-23.72,3c-14.93,1.72-7.07-.2,1.73-1.71,6.64-1.15,13.87-2.29,21.4-3.49s15.37-2.41,23.16-4.07c15.76-3.05,31.71-5.5,45.63-7.88,25.52-4.28,36-6.09,61.53-10.12,7.33-1.13,18.41-2.88,29.55-4.42s22.32-2.72,29.75-3.46c5.2-.52,11-.84,15.85-.88a33.29,33.29,0,0,1,6.09.67C545.91,114.87,539.08,115.62,540.65,115.45Z"/><path d="M591.1,22.3c-7.91,1.31-13,1.94-18.69,2.77-2.49.36-5,.66-7.44,1-1.23.16-2.47.32-3.66.53-.28.05-.63.09-.83.15l-.36.08-.15.1c-.43.32-.9.72-1.36,1.13-3.84,3.5-7.17,7.47-11.05,10.94-4.25,3.83-8,8.14-12,12.34s-8.24,8.29-12.43,12.39c-3.92,3.85-2.57,1.09-.57-1.53,6-7.89,15.91-16.9,23.21-24.23l8.1-8.07c1.2-1.18,2.39-2.35,3.79-3.61.35-.31.72-.63,1.15-1l.48-.29a2.71,2.71,0,0,1,.44-.13,8.07,8.07,0,0,1,.82-.2c1-.22,2.13-.39,3.31-.57,5.4-.84,16.31-2.26,21.72-3.05a41.48,41.48,0,0,1,5.8-.42,6.91,6.91,0,0,1,2.31.62A13.38,13.38,0,0,1,591.1,22.3Z"/><path class="cls-5" d="M576.54,115.66c-1.21-3.62-11.33-7.24-17.66-9.36,1,10.43,3.37,31.84,7.61,36.69,3.41,3.89,9.09,7.71,13.07,10.14C578.65,134,577.13,117.43,576.54,115.66Z"/><path class="cls-1" d="M506.13,262.34a29.88,29.88,0,0,1-5.28-4.76,53.67,53.67,0,0,1-3.77-4.77,56.69,56.69,0,0,1-5.57-9.46c-2.47-6.06-3.16-12.44-3.46-18.74A85.88,85.88,0,0,1,489,205c.72-3.53,1.36-7.08,2.27-10.59A53,53,0,0,1,494.76,184a29.49,29.49,0,0,1,6.75-9,25.71,25.71,0,0,1,9.78-5.5,10.83,10.83,0,0,1,3.4-.53c.59.05.66.2.38.37-.55.34-2.36,1-4.14,1.84a26.72,26.72,0,0,0-4,2.31,27.92,27.92,0,0,0-3.79,3.08,32.82,32.82,0,0,0-6.13,8.26,50.7,50.7,0,0,0-3.81,9.92,83.24,83.24,0,0,0-2.18,9.9,103.15,103.15,0,0,0-1.16,14.07c0,2.07,0,4.14.17,6.41.07,1.14.12,2.33.29,3.59s.24,2.62.54,4c.15.82.32,1.75.5,2.76l.83,3.16a11.66,11.66,0,0,0,.53,1.68c.21.56.42,1.12.63,1.7.11.29.2.58.32.86l.42.83c.28.55.56,1.11.83,1.66a65.18,65.18,0,0,0,7.71,11,49.25,49.25,0,0,0,4.94,5c.94.74,1.2,1.42,2,2a5,5,0,0,1-2.45-.51A8.22,8.22,0,0,1,506.13,262.34Z"/><path class="cls-1" d="M524.38,181.65c12.39-.64,20,18.6,19.18,36.48s-7.64,30.43-18,30.86-20.77-7.07-22.07-28.7S507.51,182.51,524.38,181.65Z"/><path class="cls-1" d="M520.2,186.55s7.35-2.16,13.27,8.65,3.72,45.46-6.71,47.48c-7.18,1.4-8.29-1.91-8.29-1.91"/><path d="M520.51,241.56a8.4,8.4,0,0,0,4.15.32,18.36,18.36,0,0,0,2-.34c.24-.1.5-.15.73-.26s.47-.25.69-.38a12.42,12.42,0,0,0,3.78-5.37A51.2,51.2,0,0,0,535,223.45c.62-4.41.38-8.78.51-13.17a34.15,34.15,0,0,0-.6-7.21,26,26,0,0,0-2.14-6.75,25.51,25.51,0,0,0-4.09-5.82,10.89,10.89,0,0,0-6-3.35c-1.07-.17-1.75-.16-2.12-.22s-.43-.17-.29-.36a4.58,4.58,0,0,1,3.23-.78,11.19,11.19,0,0,1,6.63,3,20.86,20.86,0,0,1,4.63,6.29,26.79,26.79,0,0,1,2.06,7.53,71.53,71.53,0,0,1,.61,7.13,88.07,88.07,0,0,1-.14,9.89,65.83,65.83,0,0,1-1.39,9.81,35.28,35.28,0,0,1-3.19,9.06,11.86,11.86,0,0,1-3.62,4.21,6.82,6.82,0,0,1-2.46,1l-1.06.19-1,.12a7.42,7.42,0,0,1-5.28-1.24,2.14,2.14,0,0,1-.75-2,6.4,6.4,0,0,0,1.31.67C520.37,241.54,520.72,241.6,520.51,241.56Z"/><path class="cls-1" d="M520.44,214.7s-.29,6.67,3,6.67,3-6,3-6.67-.57-5.81-4.19-4.83"/><path d="M522.89,208.88a3.32,3.32,0,0,1,2,.26,3.84,3.84,0,0,1,1.33,1.08,7.21,7.21,0,0,1,1.19,2.41,6.27,6.27,0,0,1,.26,2.25c0,.68-.12,1.38-.21,2.07s-.12,1.48-.28,2.25a3.68,3.68,0,0,1-1.28,2.21,4.26,4.26,0,0,1-1.44.73,3.89,3.89,0,0,1-1.56.09,3.51,3.51,0,0,1-2.47-1.75,8.18,8.18,0,0,1-.69-5c.18-1.51,1.09-.64,1.47.14.6,1.19.83,2.59,1.26,3.65a1.63,1.63,0,0,0,.78,1,1.27,1.27,0,0,0,.62.08,1.16,1.16,0,0,0,.54-.25,3.91,3.91,0,0,0,1-2.19,14.73,14.73,0,0,0,.19-2.8,4.83,4.83,0,0,0-.09-1.16,7.64,7.64,0,0,0-.37-1.36,2.65,2.65,0,0,0-1.31-1.65c-.26-.12-.52-.24-.9-.45-.21-.07-.41-.51-.69-.77C522.26,209.24,523.07,208.75,522.89,208.88Z"/><path class="cls-1" d="M224.58,235.44c.26.64.51,1.26.74,1.85s.53,1.13.77,1.66c.49,1.07.92,2.07,1.43,3s.9,1.81,1.41,2.64l1.53,2.47a48.49,48.49,0,0,0,6.45,8,55.08,55.08,0,0,0,8.83,5.95,34.45,34.45,0,0,0,11.2,3.75A110.67,110.67,0,0,0,269,266.37c3.83.3,1.8,1.16-.54,1.46a35.74,35.74,0,0,1-11.83-.79,56,56,0,0,1-11.44-4.15l-2.09-1.14a15.42,15.42,0,0,1-1.81-1.06l-1.6-1.05a13.45,13.45,0,0,1-1.47-1.06,37.4,37.4,0,0,1-6-5.62,31,31,0,0,1-2.21-2.78l-1.23-1.71-1.14-1.88a41.87,41.87,0,0,1-2.07-3.77c-.66-1.18-1.09-2.33-1.5-3.22a14.63,14.63,0,0,1-1.16-4,4.08,4.08,0,0,1,.34-1.75A7.11,7.11,0,0,1,224.58,235.44Z"/><path class="cls-1" d="M299.66,219.71c0,17.6-13.17,31.88-29.42,31.88s-30.55-14.28-30.55-31.88,14.3-31.89,30.55-31.89S299.66,202.1,299.66,219.71Z"/><path class="cls-1" d="M269.53,210.46a8.68,8.68,0,1,1-8.67,8.68"/><path d="M261.83,220.24a8.55,8.55,0,0,0,1.89,3.61,7.69,7.69,0,0,0,2.67,2,8.11,8.11,0,0,0,5.72.47,6.54,6.54,0,0,0,2.56-1.7,15.24,15.24,0,0,0,1.83-2.44,5.52,5.52,0,0,0,.76-3.33,7.55,7.55,0,0,0-1.05-3.26,8.82,8.82,0,0,0-5.41-4.27c-1.11-.24-1.42-.47-1.21-.77a2.58,2.58,0,0,1,1.79-.62,6.84,6.84,0,0,1,3.86,1.13,8.72,8.72,0,0,1,3,3.3,9.29,9.29,0,0,1,1,4.34,10.5,10.5,0,0,1-.83,4,10,10,0,0,1-3.56,4.35,9.43,9.43,0,0,1-5.37,1.63,9.9,9.9,0,0,1-5.18-1.53,10.51,10.51,0,0,1-2.25-2,11.21,11.21,0,0,1-1.37-2.09,5.18,5.18,0,0,1-.49-2.87c.07-.5.53-.76.81-1.08a2.73,2.73,0,0,1,.62.77A3.35,3.35,0,0,0,261.83,220.24Z"/><path class="cls-7" d="M445.53,110.33s3.73-4.59,4.94-7.49S462,81.31,464.75,79.37,477,75,479,75.5s8,4.11,8,4.11h10.52s.6,6.41-1.33,7.74l-1.94,1.34s1.21,2.82,0,4S483.74,95.46,481.92,99a13.37,13.37,0,0,0-1.33,7.13Z"/><path d="M464.47,90.43c.18,1.48.26,2.69.31,3.8v.2c0,.09,0,0,0,.06s0,0,0,0h0l.21.2c.36.33.74.67,1.14,1,.56.47,1.1,1,1.64,1.45l.8.71.18.16s0,0,0,0l.06.07c.05,0,.1,0,.15,0a8.42,8.42,0,0,0,.9-.95l.87-1.1a15.53,15.53,0,0,1,1.85-2.12,7.58,7.58,0,0,0,1-1.13c.17-.24.19-.24.2-.33a1.49,1.49,0,0,0,0-.17c0-.11,0-.22-.06-.35-.18-1-.48-2-.73-3a62.23,62.23,0,0,1-1-6.38c-.27-2,.87-1.17,1.49-.07a17.75,17.75,0,0,1,1.8,5.89c.18,1.08.31,2.16.4,3.27a5.43,5.43,0,0,1,0,1,1.44,1.44,0,0,1-.19.64l-.17.28-.13.18c-.33.45-.65.83-1,1.22-.93,1.15-1.65,2-2.36,2.81-.36.4-.71.8-1.11,1.21l-.3.31-.17.17-.26.23a1.81,1.81,0,0,1-1.3.6,5.32,5.32,0,0,1-1.69-1c-.83-.64-2-1.62-3.15-2.66l-.44-.4a6.44,6.44,0,0,1-.51-.52,3.18,3.18,0,0,1-.23-.4l0-.1v0h0s-.06,0,0,0h0v-.06l0-.22c0-.14,0-.31,0-.45v-.27c0-.69,0-1.32-.08-1.82a5.69,5.69,0,0,1,.29-2.14c.12-.37.57-.56.88-.82A2.71,2.71,0,0,1,464.47,90.43Z"/><path d="M493.35,79.61s0,.08,0,.12A4.22,4.22,0,0,0,497.51,84h0a25.51,25.51,0,0,0,0-4.4Z"/><path d="M494,89.58a5.5,5.5,0,0,1-2,.43,7.39,7.39,0,0,1-1.55-.26c-.54-.07-1.09.3-1.61,0s-1.18-.11-1.77-.06a4.08,4.08,0,0,1-1.79-.47c-.55-.21-.2-1.11.15-1.46,1.06-1,2.38-.1,3.43,0s1.37.05,2.33.09a10.09,10.09,0,0,0,2.2-.13A.61.61,0,0,1,494,88a5.25,5.25,0,0,1,.29.86A1.77,1.77,0,0,1,494,89.58Z"/><ellipse cx="479.72" cy="83.29" rx="1.38" ry="1.58"/><path class="cls-1" d="M681.41,45s1.25-11,1-16.77c0,0-7.35-7.24-3.82-10.18s5,3.07,5,3.07,2.43-8.28,5-10.2a22.74,22.74,0,0,0,8.15,1.32,19.05,19.05,0,0,0,5.63-1s1,13.15-.05,18.6c-1.21,6.14-7.5,6.07-7.5,6.07L695,46.74a9.12,9.12,0,0,1-6,2.24,10.86,10.86,0,0,1-6.57-2.24"/><path d="M685.56,48a9.44,9.44,0,0,0,5.72.15A9.06,9.06,0,0,0,693.64,47l.5-.36.21-.17s0,0,0,0c0-.36,0-.72,0-1.07-.08-3.6-.14-6.86-.2-10.13.27,0,.55,0,.81,0l.37,0,.19,0a5.85,5.85,0,0,0,.73-.12,8.89,8.89,0,0,0,1.41-.45,7.23,7.23,0,0,0,1.87-1.13,6.17,6.17,0,0,0,1.36-1.69A10.67,10.67,0,0,0,702,27.45a83.76,83.76,0,0,0,.18-9.52c0-1.13-.09-2.25-.15-3.36l-.11-1.67-.06-.8s0-.09,0-.11a.46.46,0,0,1-.15,0,7.79,7.79,0,0,1-.83.22c-.55.13-1.11.24-1.67.33a25,25,0,0,1-3.37.31,21.57,21.57,0,0,1-6.68-1.18l-.37-.13-.09,0,0,0a1.9,1.9,0,0,0-.22.2c-.15.17-.3.33-.44.51a11.74,11.74,0,0,0-.78,1.16A24.28,24.28,0,0,0,685.89,16c-.38.88-.73,1.78-1.06,2.69l-.23.68-.36,1.09-.38,1.24-.19.64-.1.32c0,.07-.05.12-.08.21-.22-.85-.46-1.77-.7-2.48l-.2-.47c-.06-.14-.14-.34-.17-.39s-.18-.34-.28-.48a2.52,2.52,0,0,0-1.48-1.25,2.37,2.37,0,0,0-1.75.68,2.13,2.13,0,0,0-.75,1.7,8.49,8.49,0,0,0,1.66,4.09,23.22,23.22,0,0,0,1.39,1.87L682,27l.39.43.2.21.35.36,0,1c0,.28,0,.55,0,.82q0,.81,0,1.62c0,1.08-.1,2.16-.17,3.23-.15,2.15-.35,4.29-.57,6.44-.8,7-.85,3.2-.65-1,.07-1.84.15-3.76.23-5.76,0-1,.06-2,.06-3,0-.51,0-1,0-1.54,0-.26,0-.52,0-.78s0-.64,0-.54l0,0-.21-.22-.41-.44c-.27-.3-.54-.6-.79-.91A21.62,21.62,0,0,1,678.85,25,9.31,9.31,0,0,1,677,20.21a3.64,3.64,0,0,1,.28-1.43,3.49,3.49,0,0,1,.91-1.17,3.39,3.39,0,0,1,2.71-.87A3.49,3.49,0,0,1,683,18.51a6.38,6.38,0,0,1,.32.57l.06.13,0,.06.06.2s0-.11.08-.17c.13-.35.25-.69.38-1,.35-.94.73-1.87,1.13-2.77a25.57,25.57,0,0,1,1.33-2.61,12.9,12.9,0,0,1,.81-1.22l.48-.57.3-.27.44-.39.2.08.66.22.5.15,1,.27c.64.17,1.27.3,1.88.41a17.66,17.66,0,0,0,3.47.29,26.19,26.19,0,0,0,3.16-.32c.5-.08,1-.18,1.47-.29l.73-.19a13,13,0,0,0,1.22-.45c0,.43.08.93.11,1.4l.06.86c0,.58.07,1.15.1,1.73,0,1.15.1,2.33.16,3.57.07,2.47.13,5.16,0,8.37a28.44,28.44,0,0,1-.3,2.89,13.51,13.51,0,0,1-.39,1.65c-.12.28-.23.56-.34.84s-.3.54-.45.82a7.26,7.26,0,0,1-2.88,2.6,9,9,0,0,1-1.89.72c-.33.08-.67.15-1,.2l-.45.06h-.15c0,2.49.09,5,.13,7.32,0,.61,0,1.21,0,1.79l0,.85c0,.1,0,.4,0,.63a2.77,2.77,0,0,1-.47.45,9.28,9.28,0,0,1-2.72,1.53,9.73,9.73,0,0,1-3.91.56,10.29,10.29,0,0,1-3.66-1,6.79,6.79,0,0,1-2.26-1.81,18.68,18.68,0,0,0,2.15,1A6.72,6.72,0,0,0,685.56,48Z"/><path d="M689.79,16a7.78,7.78,0,0,1,.78-.83,6,6,0,0,1,.91-.66,5.43,5.43,0,0,1,2.23-.76h0a.91.91,0,1,1,.21,1.8h-.18a3.83,3.83,0,0,0-1.66.21,4.92,4.92,0,0,0-.81.37,5.21,5.21,0,0,0-.73.51l0,0a.48.48,0,0,1-.69-.06A.51.51,0,0,1,689.79,16Z"/><path d="M700.44,13.61a5.32,5.32,0,0,1,.75.3,5.25,5.25,0,0,1,.68.4,2.91,2.91,0,0,1,1.1,1.26.49.49,0,0,1-.82.52l0-.06a1.83,1.83,0,0,0-.87-.48,3.16,3.16,0,0,0-.55-.13,3.65,3.65,0,0,0-.55,0,.92.92,0,0,1-.09-1.84,1.12,1.12,0,0,1,.32,0Z"/><ellipse cx="692.92" cy="19.79" rx="1.08" ry="1.21"/><ellipse cx="701.42" cy="19.79" rx="1.08" ry="1.21"/><path d="M699.33,26a.5.5,0,0,1,0-1,2.43,2.43,0,0,0,1.58-1,2.92,2.92,0,0,0-.23-.28,9.6,9.6,0,0,1-1.4-2,7.49,7.49,0,0,1-1.07-3.14.49.49,0,0,1,.48-.51.48.48,0,0,1,.5.48,6.83,6.83,0,0,0,1,2.69,8.87,8.87,0,0,0,1.26,1.81,2,2,0,0,1,.47.69,1,1,0,0,1-.23.92A3.35,3.35,0,0,1,699.33,26Zm1.61-1.93h0Z"/><path d="M694.78,35.31s-4.59-.11-7.55-2.1c0,0,4.72,5.36,7.55,5.86Z"/><path d="M697.06,25.88s-2.36.36-3.5-.91c0,0,.28,2.56,1.75,2.77C696.56,27.92,697.06,25.88,697.06,25.88Z"/><path class="cls-1" d="M641.17,58.4s-16.3-8.56-25.71-17.4a117.38,117.38,0,0,1-16-19"/><path d="M601.13,22.92c3.12,3.82,5.12,6.3,7.45,9,2,2.31,3.95,4.72,6.12,6.92s4.89,4,7.25,6.22a52.32,52.32,0,0,0,8.75,6c3.13,1.87,6.06,3.93,9.14,5.86,2.91,1.77.88,1.74-1.09,1.07-5.94-2-12.63-7.2-17.73-11.17-2.34-1.83-4-3.15-5.53-4.58s-3.07-2.87-5.09-5c-2.37-2.45-6.78-7.75-8.89-10.44a14.91,14.91,0,0,1-1.89-3.13,3.52,3.52,0,0,1,0-1.64A6,6,0,0,1,601.13,22.92Z"/><path class="cls-1" d="M597,8.61c-2.66-2.11-6.64-5.19-7.53-5.47-1.37-.44-9.9-1.47-12-.71s-8.28,4.7-7.81,5.64,11.48,1.51,12.61,1S589,5.72,589,5.72"/><path d="M588,7.2c-2,1.19-3.66,2.12-5.21,3a2.15,2.15,0,0,1-.5.18l-.44.07-.7.07c-.44,0-.86,0-1.28,0-.84,0-1.65,0-2.49,0a35.84,35.84,0,0,1-4.37-.4l-1.09-.18-.55-.1c-.3-.06-.66-.13-1-.22a2.82,2.82,0,0,1-1.49-.73,1.05,1.05,0,0,1-.34-.61,1.22,1.22,0,0,1,0-.71,3.66,3.66,0,0,1,1-1.44l.38-.34.32-.28.46-.38c.6-.49,1.22-1,1.84-1.39a16.15,16.15,0,0,1,4.11-2.19,5,5,0,0,1,.76-.18,5.23,5.23,0,0,1,.73-.08q.69,0,1.32,0c.86,0,1.7,0,2.54.06,1.67.06,3.33.13,5,.31q.64.07,1.29.18a9.78,9.78,0,0,1,1.41.32,2.46,2.46,0,0,1,.43.21,3,3,0,0,1,.32.19l.56.38c.36.26.7.52,1,.78C593.49,4.73,594.74,5.84,596,7c2.37,2.1.47,1.77-1.22.91a43.07,43.07,0,0,1-3.9-2.33l-1-.64c-.31-.19-.69-.43-.87-.51a7.3,7.3,0,0,0-.91-.2L586.94,4c-1.62-.26-3.27-.51-4.86-.68-.8-.08-1.58-.14-2.33-.16a7.36,7.36,0,0,0-2,.14,20.63,20.63,0,0,0-3,1.55c-.88.54-1.66,1.06-2.41,1.6l-.55.42-.38.31a1.42,1.42,0,0,0-.32.37c-.06.09,0,.17.11.19l.27.07.41.07,1,.14a59.51,59.51,0,0,0,6.16.39c.58,0,1.15,0,1.71,0A4,4,0,0,0,582,8.17l2.48-1.33a13.52,13.52,0,0,1,3.07-1.21,3.3,3.3,0,0,1,1.53.22A4.9,4.9,0,0,1,588,7.2Z"/><path d="M723.2,257.11a9.21,9.21,0,0,1-1.76-6.43l1.3.19a8,8,0,0,0,1.57,5.53Z"/><path d="M723.14,256.75c1.22-.83,2.39,2.45,3.36,3.63,2.43,2.94,8,4.73,10.62,5.77s6.09,2.76,6.09,2.76-28.22-.48-29-.48-1.12-.09-1.21-2.95c0-1.54-.4-5.14-.71-8.11C712.29,257.37,719.18,259.44,723.14,256.75Z"/><path d="M743.21,269.57h0c-.28,0-28.21-.48-29-.48-1.49,0-1.79-.94-1.87-3.58,0-1.23-.28-4-.7-8.07a.65.65,0,0,1,.84-.7c.07,0,6.64,1.95,10.29-.53h0a1.33,1.33,0,0,1,1.07-.22c.95.22,1.62,1.4,2.33,2.64A10.14,10.14,0,0,0,727,260c2,2.4,6.26,4,9.09,5.1l1.26.48c2.59,1,6.1,2.76,6.14,2.78a.66.66,0,0,1-.29,1.25ZM713,258.24c.28,2.68.58,5.81.62,7.22.05,1.85.23,2.23.3,2.31h.25c.63,0,18.62.31,26,.43-1-.48-2.25-1-3.3-1.44l-1.24-.47c-3-1.13-7.44-2.83-9.64-5.49a11.55,11.55,0,0,1-1-1.52c-.34-.59-1.14-2-1.49-2l-.4-.53.37.55C720.19,259.55,715.13,258.72,713,258.24Z"/><path d="M711.64,257.44c-.27-2.53-.5-4.6-.51-4.6l1.31-.15s.24,2.08.51,4.61Z"/><path d="M688.74,257.71c-.08-3.14-.17-5.76-.17-5.76l1.31,0s.1,2.63.18,5.78Z"/><path d="M689.4,257.69c.11,4.54.17,10.16-.17,10.5-.59.59-9.93.73-11.17.66s-21.09.88-21-.51,7.22-4.16,10.5-4.82,10.29-3.94,10.88-5a2.44,2.44,0,0,0,.18-.87,18,18,0,0,0,5.73.87A23.35,23.35,0,0,0,689.4,257.69Z"/><path d="M664.76,269.76c-5.31,0-7.58-.26-8.13-.83a.81.81,0,0,1-.24-.62c.11-2.21,8.88-5,11-5.43,3.44-.69,9.92-3.9,10.44-4.65h0a2,2,0,0,0,.09-.59l.06-.85.81.27a17.3,17.3,0,0,0,5.48.85,23.12,23.12,0,0,0,4.91-.85l.83-.25,0,.87c.25,10.37-.08,10.69-.37,11-1,.95-11.57.85-11.67.85s-1.53,0-3,.06C670.74,269.69,667.38,269.76,664.76,269.76Zm-6.82-1.65c2.47.56,13.29.25,17,.15,1.92-.06,2.85-.08,3.14-.07a79.64,79.64,0,0,0,10.59-.48c.09-.53.22-2.43.07-9.17a23.79,23.79,0,0,1-4.39.68,17.92,17.92,0,0,1-5.23-.68,1.6,1.6,0,0,1-.14.35c-.77,1.34-8.17,4.65-11.32,5.28S659.17,267,657.94,268.11Zm30.91-.45Z"/><path d="M679.26,257.73l-1.31-.09a43.67,43.67,0,0,0-.47-6.21l1.31-.18A44,44,0,0,1,679.26,257.73Z"/><path d="M563.53,108.86q-2.44-.89-4.86-1.66l-2.4-.78a18.4,18.4,0,0,1-2.39-1.22c-2.91-1.74-5.5-3.62-8.08-5.43-5.1-3.66-9.85-7.24-14.39-10.69s-8.83-6.78-13-10l-6.1-4.79-6.86-5.45c.49-.58,1-1.18,1.41-1.73l.25-.32.16-.23.33-.45c.43-.6.83-1.22,1.21-1.84a19.56,19.56,0,0,0,1.86-3.83,8.6,8.6,0,0,0,.45-1.92v-.19h0a0,0,0,0,0,0,0h0s-.22-.12-.34-.17a27.86,27.86,0,0,0-4-1.29c-5.66-1.41-11.44-2.4-17.31-3.4-13.78-2.27-27.56-4.19-41.34-6S420.56,44,406.68,42.52c-7.26-.74-14.5-1.41-21.71-2s-14.42-1-21.61-1.27c-14.41-.52-28.8-.68-43.27-.71-15.89,0-31.82.43-47.72,1.61-7.94.59-15.87,1.41-23.75,2.55l-5.87,1c-1.95.39-3.87.84-5.81,1.25-1,.21-1.89.54-2.84.8s-1.89.53-2.81.86c-1.83.75-3.68,1.41-5.49,2.23l-5.55,2.56-5.49,2.72c-3.64,1.83-7.25,3.72-10.85,5.62q-10.75,5.76-21.36,11.69c-14.16,7.9-28.18,16-42.23,24.26-13.18,7.78-16.34,9.44-14.33,7.85s9.25-6.33,17-11.14c11.66-7.25,24.47-14.93,38-22.67,3.39-1.94,6.81-3.88,10.29-5.8s7-3.85,10.53-5.76c7.11-3.79,14.31-7.58,21.83-10.92A70.87,70.87,0,0,1,235.29,43c2-.51,4-.87,6.05-1.32s4-.66,6.06-1c8.09-1.15,16.15-1.94,24.1-2.47,15.9-1.12,31.35-1.46,45.74-1.63,13.2-.13,24.45,0,34.73.24s19.59.66,28.86,1.39c18.56,1.46,37.06,3.32,63.24,6.54,10.1,1.26,23.68,3,38.08,5.24,7.2,1.13,14.6,2.34,21.85,3.91,1.81.41,3.61.83,5.4,1.37a16.4,16.4,0,0,1,2.72,1c.6.31,1.31.91,1.21,1.69,0,.44,0,.65-.06.91l-.14.73A18.25,18.25,0,0,1,511,64.85c-.45.79-.94,1.53-1.45,2.27-.25.36-.52.73-.77,1.06l-.25.32,8.57,6.78,8.34,6.52q7.85,6.09,13.8,10.54c4.26,3.18,8.74,6.55,13.24,9.65.56.4,1.12.78,1.69,1.13s1.14.77,1.68,1a23.27,23.27,0,0,0,3.63,1.42c2.51.89,4.95,1.81,7.24,2.79a32.44,32.44,0,0,1,6,3.25,16.27,16.27,0,0,1,2.15,1.78,5.57,5.57,0,0,1,1.54,2.32,7.9,7.9,0,0,0-3.31-2.89,39.71,39.71,0,0,0-5.15-2.36C564.57,109.15,562,108.36,563.53,108.86Z"/></g></svg>