<svg xmlns="http://www.w3.org/2000/svg" width="283" height="260" viewBox="0 0 283 260"><defs><style>.cls-1{fill:#d6d6d6;}.cls-2{fill:#4bdeb4;}.cls-3{fill:#ff6042;}.cls-4{fill:#fcb033;}.cls-5{fill:#fff;}.cls-6{fill:#666;}</style></defs><title>hero_moto</title><g id="moto"><path class="cls-1" d="M94.47,179.84a26.74,26.74,0,0,0-8.11,7.35c-3.51,4.89-3.51,9.5-2.29,12.09s20.09,37.44,25.49,38.36,45.22.61,48.54,0,12.21-35.78,12.21-35.78l-22.63-22Z"/><path d="M67.59,136.27s-1.38,5.86-1.2,7.32S76,162.83,80.1,172.72s6.26,14.47,6.26,14.47l9-4.8s-15.1-29.82-16.52-33.85a12,12,0,0,1,0-7.69Z"/><path d="M33.12,192.48a95,95,0,0,0-10.07,18.3C19,220.86,15.8,234.5,24.52,238.06S42.71,229,49.71,214.35s15.6-30.72,15.6-30.72l2.28,8.5-1.28,11.63s-3,14.52-15,30.86-25.56,24.69-36.74,22.85S-1,244.57.2,229s12.9-38,20-46.58Z"/><path class="cls-1" d="M46.75,48.49c.76-2.11,6-5.6,13.89-2.54s6.41,11.43,3.57,13.13-8.43,1.79-13.52-.59S45.89,50.88,46.75,48.49Z"/><path class="cls-2" d="M199.23,55.49c3.46.11,7.72,2.21,9.53,5.83s1,10.53,1,10.53-4.2,3.4-8,4.24-6.72,2.2-7.77,1c0,0,.57-9.34-.76-12s-.86-2.15-.86-2.15S197.12,55.42,199.23,55.49Z"/><path d="M40.26,59.44c1.05-.1,18.39,5.47,18.39,5.47a1.85,1.85,0,0,1,2-.95c1.47.21,5.68,1.58,5.68,2.11s-1.06,3.15-1.69,6.09-.84,4.94-.84,4.94-6.52-.94-6.94-1.47a6.69,6.69,0,0,1-.73-2L38.05,68.69s-.95-3.36,0-5.88A7,7,0,0,1,40.26,59.44Z"/><path class="cls-1" d="M63.28,75.42s8.51,2.84,9,3.58,1.15,12.72,1.15,12.72-6,6.2-6.2,7.25a9.47,9.47,0,0,0,.11,3.57c.21.32,22.71,11.33,23.85,11.33s7.6-9,7.15-11.4-15.84-9.11-15.84-9.11-1-16.81-3.13-19-14.82-6.14-14.82-6.14Z"/><path d="M54.17,52.38a17.67,17.67,0,0,1,.41,3.48q0,.35,0,.69c0,.05-.07,0,0,.09a3.25,3.25,0,0,0,.22.51,4.56,4.56,0,0,0,.33.56c.52.77,1.41,1.24,1.78,2.17a7.18,7.18,0,0,0,2.07,2.35,13.87,13.87,0,0,1,1.88,2.64c.55.86-.49,1.1-1.17.89-2-.6-3-3-4.23-4.53l-1.33-1.67a13.5,13.5,0,0,1-1.31-1.8,1.59,1.59,0,0,1-.24-.55c0-.12-.06-.25-.11-.38s0-.3,0-.36c0-.34,0-.72,0-1.1,0-.76-.06-1.51-.13-2a1.66,1.66,0,0,1,.29-1.06c.12-.19.58-.28.88-.41A1.78,1.78,0,0,1,54.17,52.38Z"/><path class="cls-1" d="M164.82,86.34c.08-2.31-3.56-7.64-12.29-7.76S142,87.05,144.08,89.76s7.36,4.94,13.13,4.62S164.73,89,164.82,86.34Z"/><path d="M157.53,87.2c0,.7-.07,1.27-.13,1.77,0,.25-.06.48-.09.71l0,.32v.39l0,.28a2,2,0,0,1-.68,1.14,6.05,6.05,0,0,1-.66.5l-1.26.74c-.83.52-1.42,1.36-2.41,1.61a8.07,8.07,0,0,0-2.69,1.66,12.31,12.31,0,0,1-3,1.29c-1,.34-.95-.73-.61-1.34,1-1.83,3.52-2.3,5.14-3.24a29.24,29.24,0,0,0,3.38-2.26c.15-.12.33-.27.5-.43s.16-.15.15-.27c.05-.83.25-1.83.32-2.41a1.6,1.6,0,0,1,.55-1c.16-.15.63-.11,1-.15A2,2,0,0,1,157.53,87.2Z"/><path class="cls-1" d="M63.28,136.12,52,162.06l-9.59.67s6.21-12.83,8.24-17.43,5-12.29,5-12.29"/><path class="cls-3" d="M34.36,193.37c2.54-.45,8.47-8.94,15.66-11.66s10.54-2.07,14,1.44,1.12,20,2.24,20.61,10-15.53,2.14-32.4c-7.43-15.94-27.54-9.77-35.84-5.62S17,179.16,17,181.71,29.89,194.17,34.36,193.37Z"/><path d="M48.35,214c-2,5.06-6.66,12.87-10.69,11.72s-2.87-9.65-.69-15.4,8.51-12.18,12.3-10.91S48.35,214,48.35,214Z"/><path class="cls-3" d="M89.4,128.83c3.82-3.29,7.55-6.44,14.41-6.08s54,17,61.39,22.39,7.27,11,6.78,12.05-5.31,13.23-7.94,15-24.5,13.9-25.66,14.08-34,2-36.73,1.63c-3.47-.52-7.59-5.89-9.74-9.12s-12.34-26.7-12.72-28.48S89.4,128.83,89.4,128.83Z"/><path class="cls-1" d="M55.68,133s-1.49-2-.81-3.92,2.25-4.34,3-4.58a2.22,2.22,0,0,1,1.49.14L83.83,136.4s15.8-34.71,17.45-36.37,19.47-11.47,22.86-11.84,14.24,5.32,14.24,5.32l-4.13,8.54s-9.65-5-11.58-4.68-12.48,6.43-14.23,8.54-16.75,31.28-21.8,41.59-15.87,33.55-18,37.39-12.92,22.43-14.27,25.53-4.46,7.71-8.11,6.22.54-11.21,3.24-15.94,19.32-35.13,20.13-36.48S80,143.68,80,143.68l-16.72-7.56"/><path d="M68.6,132.2a19,19,0,0,0,13.29,1.88c8-1.58,9.84-8.89,9.71-13.5s-1.89-11.13-8.55-14.29Z"/><path class="cls-4" d="M78.93,103.89c8.5,3.17,10.81,12.77,7.49,20.44s-12.78,10.48-20.78,6.82S57.12,117,59.25,112,68.19,99.88,78.93,103.89Z"/><path class="cls-4" d="M254.43,158.87s16.46-.3,17.73,1.32,0,17,0,17Z"/><path d="M167.84,147.87a91.7,91.7,0,0,0,21.84,0c12.31-1.43,28.72-7,33.41-8.76s9.37-3.34,11.43-2.84,15.82,19.08,15.82,19.08,19.34,16.29,25.2,24.49a45.94,45.94,0,0,1,7.33,17.3l-1.77.75A56.91,56.91,0,0,0,262.19,175c-13.63-9.57-24-11.52-36.84-10.63s-22.58,4.07-30.92,16.32-5.15,26.45-14.37,32.13c0,0-16.68-11.94-19.53-14.73s-12.85-18.29-12.85-18.29Z"/><path d="M232.89,175.06A41.81,41.81,0,0,0,191.65,217c0,23.14,18.47,41.9,41.24,41.9s41.25-18.76,41.25-41.9S253,174.75,232.89,175.06Zm0,67.16C218.81,240.55,208,230.92,208,217a24.87,24.87,0,1,1,49.73,0C257.76,230.92,246.53,243.85,232.89,242.22Z"/><path class="cls-1" d="M158.1,237.64s17.85-.71,22.34-1.33,74.61-32.51,74.61-32.51,5-8.82,5.11-9.75-4.49-8.82-5.26-9.13-10.84,0-10.84,0-59,41.33-64.7,42-26.92,1.4-26.92,1.4"/><polygon class="cls-5" points="240.5 222 250.62 235.91 238.75 242.03 237.5 239 229.5 230 240.5 222"/><path d="M241.08,222.07Z"/><path d="M256.8,240.92a2,2,0,0,0-.46-.8l-.39-.46-.66-.74-1.3-1.44c-.86-.94-1.71-1.84-2.54-2.7a19.43,19.43,0,0,0-2.67-2.41.62.62,0,0,0-.09-.26,9.43,9.43,0,0,0-1.34-2.28,5.78,5.78,0,0,1-1.59-2c-.26-.79-1-1.19-1.45-1.83a18,18,0,0,0-1.22-1.9,14.55,14.55,0,0,0-2-2,1.71,1.71,0,0,0-.76.07c-.14.25-.42.56-.41.74a1.28,1.28,0,0,0,.34.84,29.37,29.37,0,0,1,2.11,2.5c.86,1.13,1.26,1.55,2.08,2.71s1.52,3.3,3.18,3.88a1.29,1.29,0,0,0,.4.07,6.43,6.43,0,0,0-.88,1.12,19.47,19.47,0,0,1-1.66,2.3,14.68,14.68,0,0,1-2,2,7.14,7.14,0,0,1-2.52,1.23,10.17,10.17,0,0,1-1.75.28c-.32,0-.64,0-1,0h-.07a1.36,1.36,0,0,0,.13-.37c0-.12,0-.25.07-.4a1.65,1.65,0,0,0,.06-.62,1.68,1.68,0,0,0-.28-.75,4.43,4.43,0,0,0-.36-.5c-.47-.58-.94-1.06-1.25-1.39-1.08-1.13-1.58-1.52-2.67-2.63s-2.31-3.22-4.16-3.55c-.61-.12-1.49.19-.92.89a11.71,11.71,0,0,0,1.91,2.12,6.41,6.41,0,0,1,2.05,1.86c.43.77,1.26,1.1,1.82,1.72s.94,1.3,1.46,1.84c.15.15.28.3.4.44s.07.09.08.09h0s0,.22,0,.48,0,.48-.05.77c-.25.74-.5,1.51-.77,2.3-.22.64-.45,1.29-.69,1.94-.48,1.31-1,2.63-1.57,3.87-.29.61-.58,1.21-.9,1.74a2.2,2.2,0,0,1-1.13,1.05l-2.88,1.76c-2.11,1.33-3.88,2.5-5.46,3.69a12.38,12.38,0,0,0-1.69,1.47,2.94,2.94,0,0,0-.67,1.35.75.75,0,0,0,0,.2l.16,0,.31.1.63.21.16.05h1.92l12.09,0,3,0,1.63-1.64,1.44-1.4,3-2.87c1-1,2-1.92,3.05-2.85s2.17-1.82,3.2-2.78,2.08-1.94,3.06-3c.49-.52,1-1,1.42-1.61.23-.29.45-.58.67-.92l.08-.14.13-.22c.07-.15.13-.3.19-.45A1.58,1.58,0,0,0,256.8,240.92Z"/><path d="M259.67,196.93c-.89,1.87-1.74,3.54-2.55,5.09q-.3.58-.6,1.14c-.24.46-.49.91-.73,1.36-.78.45-1,.49-1.38.69l-1.06.5-8,3.72c-4.68,2.17-9.42,4.08-14.14,6.15-4.93,2.16-9.62,4.63-14.62,6.54-5.48,2.11-10.78,4.7-16.16,7.12-5.55,2.47-11.07,4.63-16.78,6.66-.68.22-1.2.42-1.67.52a8.78,8.78,0,0,1-1.06.17c-.48,0-.54-.08-.33-.28a7.12,7.12,0,0,1,1.24-.77c.58-.34,1.3-.74,2.05-1.1,9-4.59,21.81-9.46,31.54-13.69,8.91-3.89,12.52-5.57,21.39-9.54L247,206.58l5.58-2.58,1.29-.6.5-.23s.07-.09.12-.17l1.1-2.07c.91-1.73,2-3.58,3-5.11.54-.87,1.14-1.08,1.64-1.75A10.1,10.1,0,0,1,259.67,196.93Z"/><path class="cls-6" d="M177,116.38s1.6,29.9,6.32,42.9,9.25,29.55,13.19,36.34,14,19,17.85,24.73,6.19,12.67,7.67,13.32a35.11,35.11,0,0,0,15.36-7c7.39-5.9,8.57-12.34,8.57-12.34s-12.41-15.43-18.91-23.11-14-13.55-15.57-16.67-6.88-27.89-7.18-40S202,115.83,202,115.83Z"/><path class="cls-5" d="M155.5,225s-4,19-8,21,11,4,13,2,2-5,3-7l5-10Z"/><path d="M155.12,228.61Z"/><path d="M167,231.58a16.82,16.82,0,0,0-1.85,3.21,12.9,12.9,0,0,1-1.44,3.32,13.32,13.32,0,0,0-1.2,3.07,22,22,0,0,0-1.24,3,13.46,13.46,0,0,0-.58,3.4,7,7,0,0,0-1.61.06c-.94.15-2,.26-3,.33-.53,0-1.07,0-1.6.06a9.9,9.9,0,0,1-1.45-.1,7.58,7.58,0,0,1-2.32-.71,10.84,10.84,0,0,1-1.31-.77c-.22-.16-.45-.34-.67-.53l-.06,0c.21-.09.41-.18.61-.29a3.81,3.81,0,0,0,1-.67,2.9,2.9,0,0,0,.4-.58,2.75,2.75,0,0,0,.24-.49,6.08,6.08,0,0,0,.35-1,15,15,0,0,1,1.14-3.66,16,16,0,0,0,.95-3.32c.34-1.05.83-2.05,1.08-3.14a29.47,29.47,0,0,0,.75-4.12,1.82,1.82,0,0,0-.47-.74c-.3.09-.71.09-.87.27a2.69,2.69,0,0,0-.58,1.17c-.2,1.19-.81,3.53-1.14,4.68-.58,2-.75,2.84-1.4,4.81-.36,1.08-.94,2.26-1.42,3.42-.12.28-.23.56-.34.84l-.15.36c0,.12-.06.2,0,.18a4.39,4.39,0,0,1-.42.53,7,7,0,0,0-.52.67l-.05.09-.13-.14-2.49,1.4c-.67.36-1.36.74-2.08,1.1-1.42.74-2.91,1.47-4.37,2.16-2.92,1.4-5.75,2.66-7.81,3.52-1.09.46-2.12.88-3.09,1.23-.49.19-.92.33-1.41.48l-1.4.46-1.31.49-.63.25-.8.34c-1.25.53-2.53,1.13-3.6,1.67a3,3,0,0,1-.27.66l-.15.24-.08.1,0,0s0,0,0,.05l1,.67,10.63,0c5.75,0,12.34.24,18.87.32,3.26,0,6.5,0,9.62,0h.58a2.4,2.4,0,0,0,.46-.05,2.1,2.1,0,0,0,.52-.15,2.48,2.48,0,0,0,.78-.56l.29-.32c.08-.11.13-.22.2-.33a7.55,7.55,0,0,0,.82-2.44,22.56,22.56,0,0,0,.26-4.42,19.83,19.83,0,0,0-.3-3,.64.64,0,0,0,.27-.18,2.64,2.64,0,0,0,.41-1.08,20.37,20.37,0,0,1,1.1-4.31c.68-1.83.93-2.6,1.74-4.4.89-2,2.71-4.16,2.74-6.41C168.09,231.52,167.64,230.61,167,231.58Z"/><path class="cls-6" d="M216.34,106.29s5,8.5,3.47,18.57-10,25.36-19.71,36.15-15.62,18-16.64,24.12-2.26,26.39-2.87,34.93-2.46,12.43-2.46,12.43a32.75,32.75,0,0,1-17.43,0c-9.23-2.67-11.07-7.79-11.07-7.79s11.07-41.82,14.76-50.85S191.56,116,191.56,116Z"/><path class="cls-2" d="M166.26,78.47s-1.8,7.78-1.11,9.7,8.72,8.15,9.82,12.16,2.06,16,2.06,16,13.72,3.46,24.92-.55,14.39-9.54,14.39-9.54a33.08,33.08,0,0,0-4.43-9,72.21,72.21,0,0,1-9.4-18.54c-2.49-7.61-3.88-24.08-3.88-24.08a36.11,36.11,0,0,0-12.45,0c-6.23,1.25-13.7,2.22-19.92,4.29S166.26,78.47,166.26,78.47Z"/><path d="M175,101a.65.65,0,0,1-.63-.48c-.63-2.27-3.77-5.45-6.3-8-2-2.06-3.2-3.26-3.51-4.12-.73-2,.9-9.25,1.09-10.07a33,33,0,0,0,0-6.06.66.66,0,0,1,.6-.71.65.65,0,0,1,.71.59,34.87,34.87,0,0,1-.07,6.41c-.69,3-1.6,8.13-1.14,9.4A20.63,20.63,0,0,0,169,91.59c2.63,2.66,5.91,6,6.63,8.57a.65.65,0,0,1-.46.8A.57.57,0,0,1,175,101Z"/><path class="cls-5" d="M169.07,50.08a40.58,40.58,0,0,1,5.1,6.38A55.86,55.86,0,0,1,177,62.41s6.17-1.16,9-6.16c0,0-2.27-9.51-4.84-12.68s-3.62-3.35-3.62-3.35"/><path d="M177,63.07a.67.67,0,0,1-.61-.42,55.14,55.14,0,0,0-2.75-5.87,40.83,40.83,0,0,0-5-6.24.65.65,0,0,1,0-.93.66.66,0,0,1,.93,0,41.49,41.49,0,0,1,5.21,6.52,55.24,55.24,0,0,1,2.61,5.5c1.47-.4,5.69-1.81,7.94-5.5-.38-1.52-2.43-9.42-4.65-12.15s-3.27-3.13-3.28-3.14a.64.64,0,0,1-.5-.76.67.67,0,0,1,.79-.52c.3.06,1.49.48,4,3.59s4.88,12.54,5,12.93a.61.61,0,0,1-.07.48c-3,5.21-9.22,6.43-9.49,6.48Z"/><path d="M140.11,91c1.38.11,6,2.67,6,3a6.67,6.67,0,0,1-.27,1.52l22,10.76s0,3.6-1.75,5.78a8.54,8.54,0,0,1-3.84,2.8l-22.14-10.66-1,1.49s-5.16-2.62-5.28-3.06S139.48,91,140.11,91Z"/><path class="cls-5" d="M196,76.9s-.73,10.35-1,17.12a47.46,47.46,0,0,0-9.24,0c-5.29.49-13.3,1-17.61.86s-13.3-1.1-14.9-.73-9.36,8-10.22,9.22-4.07,9.13-3.45,9.5,2.71-3.21,3.32-4l1.24-1.47s3.2,3.2,4.55,3,3.2-4.55,3.7-5.05a25.72,25.72,0,0,1,4.05-2.71c2.1-1.23,1.74-2.46,1.74-2.46s13.91,3,20.44,4.19,19.7,5.54,24.75,1.6,5.18-18.84,5.79-22.91a88.69,88.69,0,0,0,.5-11.21s-6.66,4.31-9.61,4.68A38.85,38.85,0,0,1,196,76.9Z"/><path d="M139.74,113.56a.86.86,0,0,1-.45-.13.8.8,0,0,1-.37-.54c-.29-1.37,2.83-8.77,3.62-9.9s8.74-9,10.61-9.49c1-.23,3.94,0,8.64.32,2.35.18,4.77.36,6.43.41,4.16.11,12-.34,17.53-.86a49.67,49.67,0,0,1,8.67-.07c.27-6.7,1-16.34,1-16.44a.65.65,0,0,1,.65-.61,40,40,0,0,0,4-.37c2.77-.35,9.26-4.54,9.33-4.58a.65.65,0,0,1,.66,0,.66.66,0,0,1,.35.57,86.7,86.7,0,0,1-.5,11.32c-.11.77-.22,2-.33,3.38-.53,6.21-1.4,16.59-5.7,19.95s-13.89,1.13-20.88-.5c-1.62-.38-3.15-.74-4.4-1-5.6-1.05-16.74-3.4-19.72-4a3.9,3.9,0,0,1-2,2.23,24.43,24.43,0,0,0-3.92,2.61,11.49,11.49,0,0,0-.64,1.1c-1.17,2.14-2.24,3.92-3.4,4.13-1.32.24-3.49-1.58-4.62-2.64l-.78.94c-.14.17-.42.58-.72,1C141.41,112.33,140.54,113.56,139.74,113.56Zm14.78-18.84a5.29,5.29,0,0,0-1.07.07c-1.3.29-9,7.72-9.83,8.95a45.78,45.78,0,0,0-3.12,7.54c.43-.57.88-1.25,1.15-1.65s.61-.9.8-1.13l1.23-1.48a.67.67,0,0,1,.48-.23.58.58,0,0,1,.49.19c1.4,1.4,3.36,2.89,4,2.78s2-2.55,2.48-3.47a7.54,7.54,0,0,1,.86-1.4,25.87,25.87,0,0,1,4.18-2.81c1.58-.92,1.44-1.73,1.44-1.74a.68.68,0,0,1,.18-.61.62.62,0,0,1,.59-.19c.14,0,14,3,20.43,4.18,1.28.24,2.82.6,4.46,1,6.73,1.57,15.94,3.72,19.77.74s4.72-13.42,5.2-19c.12-1.48.22-2.66.34-3.47a78.24,78.24,0,0,0,.5-9.92c-2,1.23-6.49,3.85-8.88,4.15-1.79.22-2.91.31-3.53.35-.16,2.28-.73,10.74-.94,16.51a.66.66,0,0,1-.23.47.64.64,0,0,1-.51.15,48,48,0,0,0-9.1,0c-5.6.52-13.47,1-17.69.86-1.69-.05-4.13-.23-6.48-.41C159.05,94.94,156.13,94.72,154.52,94.72Z"/><path d="M168.62,29.65a8.55,8.55,0,0,0,2.79,6.25c3.06,3,11,9.17,12.64,16.85s.09,13.68,1.14,16.75a5.71,5.71,0,0,0,4.64-2.43c2.17-2.69,5.63-7.59,7.14-9.88s4.37-1.41,4.37-1.41a20.79,20.79,0,0,0-4.61-8.53c-3.71-4.22-7-5.55-8-8.59S184,27.19,184,27.19Z"/><path d="M195.7,77.8a3,3,0,0,1-2.1-.55,1.07,1.07,0,0,1-.2-1.09c.41-1.24.14-4.34,0-5.43A.67.67,0,0,1,194,70a.68.68,0,0,1,.74.57c0,.42.49,4,0,5.85a15.87,15.87,0,0,0,5.27-.52.67.67,0,0,1,.78.5.66.66,0,0,1-.5.79A23.13,23.13,0,0,1,195.7,77.8Z"/><path d="M198,98a.64.64,0,0,1-.65-.56c-.17-1.18-2-2.42-2.66-2.79a.67.67,0,0,1-.26-.89.66.66,0,0,1,.9-.26c.31.17,3,1.72,3.32,3.76a.65.65,0,0,1-.56.74Z"/><path d="M186,91.3a10.46,10.46,0,0,1-6.72-2.63.67.67,0,0,1,0-.93.66.66,0,0,1,.93,0A9.26,9.26,0,0,0,186.23,90c3.45-.11,4.76-1.7,4.82-1.76a.65.65,0,0,1,.92-.11.66.66,0,0,1,.11.92c-.07.08-1.7,2.14-5.81,2.27Z"/><path d="M80.12,91.54A70.83,70.83,0,0,1,87.2,94.4c1.86.82,3.57,1.9,5.35,2.88s3.88,1.73,5.52,3.36a9.27,9.27,0,0,1,.68.78,2.2,2.2,0,0,1,.46,1.32,7,7,0,0,1-.47,2A24.54,24.54,0,0,1,97.23,108a23.63,23.63,0,0,1-4.57,5.61,2,2,0,0,1-1.12.6c-.37,0-.34-.16-.25-.3s.33-.83.65-1.4c.93-1.7,2.21-3.58,3.47-5.49a26.23,26.23,0,0,0,1.7-2.89,4.91,4.91,0,0,0,.45-1.32c0-.13,0-.16,0-.26a2.65,2.65,0,0,0-.41-.45,23.71,23.71,0,0,0-3.7-2.43c-1.16-.64-2.35-1.25-4-2.11-1.93-1-5.94-2.84-8-3.62a8.17,8.17,0,0,1-2-1.18c-.32-.26-.34-.7-.5-1.06A3,3,0,0,1,80.12,91.54Z"/><path d="M146.33,228.66c-5.87.51-9.67.58-13.89.7-3.71.1-7.37-.08-11.08-.26l-2.92-.14c-.48,0-1-.08-1.48-.12l-.37,0a3.48,3.48,0,0,1-.44-.1l-.45-.11-.4-.17a9.73,9.73,0,0,1-2.62-1.77,17.29,17.29,0,0,1-2-2.21c-2.58-3.44-5.1-6.84-7.41-10.42a104.4,104.4,0,0,1-6.12-11.41c-1.73-3.67,0-2.1,1.38-.13,2.11,3,4.22,6.63,6.39,10.31A78,78,0,0,0,111.74,223a19.49,19.49,0,0,0,3.13,3.08,5.83,5.83,0,0,0,1.5.84,9,9,0,0,0,1.66.26c2.39.21,4.84.26,8.31.29,4,.06,12-.13,16-.37a26.19,26.19,0,0,1,4.27.11,4.44,4.44,0,0,1,1.65.71A7.77,7.77,0,0,1,146.33,228.66Z"/><path class="cls-5" d="M155.53,31.62s-.3,3.28-.3,5.05.57,4.4.44,5.46,2.38,6.39,3.62,8.42a7.67,7.67,0,0,0,5,3.47c1.33.09,6.47-1.94,9.69-5.54,2.73-3.06,4.34-8.26,4.34-8.26l-3.66-11.53"/><path d="M164.34,54.68h-.13a8.24,8.24,0,0,1-5.48-3.77c-1-1.69-3.89-7.46-3.71-8.86a13.71,13.71,0,0,0-.19-2.43,24.41,24.41,0,0,1-.26-2.94c0-1.78.29-5,.31-5.11a.65.65,0,0,1,.71-.59.66.66,0,0,1,.6.71s-.3,3.27-.3,5a24.5,24.5,0,0,0,.24,2.78,12.86,12.86,0,0,1,.19,2.76c-.06.77,2.08,5.64,3.53,8a7,7,0,0,0,4.45,3.15c1,.08,6-1.76,9.16-5.32a24.92,24.92,0,0,0,4.14-7.83L174,28.89a.66.66,0,1,1,1.25-.4L178.92,40a.65.65,0,0,1,0,.39c-.07.22-1.68,5.38-4.48,8.5C171.31,52.41,166.15,54.68,164.34,54.68Z"/><path class="cls-3" d="M174,49.46a1,1,0,0,1-.53-.15A1,1,0,0,1,173.1,48c1.65-2.84,1-11,.54-14a1,1,0,0,1,.83-1.11,1,1,0,0,1,1.12.83,57.16,57.16,0,0,1,.51,9.08,21.33,21.33,0,0,0,2.48-8.55,1,1,0,0,1,1-1h0a1,1,0,0,1,1,1c-.06,6.55-5.56,14.43-5.79,14.76A1,1,0,0,1,174,49.46Z"/><path class="cls-3" d="M153.66,31.62a23.48,23.48,0,0,0,8.36,1c5.36-.13,8.82-1.07,11.09,1.07s3.44,2.73,4.58,2.9,4.08-.56,7.94-7c0,0-2.4-15.53-17.32-14.63C151.82,16,153.66,31.62,153.66,31.62Z"/><ellipse cx="163.85" cy="37.48" rx="0.95" ry="1.24"/><ellipse cx="156.62" cy="37.87" rx="0.95" ry="1.25"/><path d="M160.15,45.08a4,4,0,0,0,1.92-1c.9-.81,1.28-1.29,1.52-1s.77,2.87-.69,3.49S160.15,45.08,160.15,45.08Z"/><path class="cls-5" d="M157.83,37.34a12,12,0,0,1-.71,3.1c-.53,1.21-1.62,2.17-1.59,2.74s2.75.86,3.23.67"/><path d="M158.17,44.4a6.37,6.37,0,0,1-2.71-.55.81.81,0,0,1-.42-.64,2.68,2.68,0,0,1,.74-1.54,8.21,8.21,0,0,0,.89-1.43,11.53,11.53,0,0,0,.67-2.94.49.49,0,1,1,1,.09,12.82,12.82,0,0,1-.75,3.25,8.54,8.54,0,0,1-1,1.6,7.77,7.77,0,0,0-.53.81,6.18,6.18,0,0,0,2.53.34.5.5,0,0,1,.62.3.48.48,0,0,1-.26.62A2.48,2.48,0,0,1,158.17,44.4Z"/><path d="M184.56,132.44c-3.64,8.32-6.15,13.6-8.87,19.5-2.38,5.18-5,10.2-7.37,15.34-1.23,2.7-2.45,5.41-3.41,8.11s-1.82,5.53-2.81,8.3c-2.18,6.1-3.72,12.43-5.41,18.72-1.73,6.47-3.67,12.72-5.56,19.09-1.76,6-1.68,2.56-1-1.11,2-11,6.71-25.44,10.18-36.65a113.84,113.84,0,0,1,4.32-12.29c1.53-3.48,3.11-6.92,5.38-11.79,2.61-5.59,7.93-16.88,10.49-22.51a62.5,62.5,0,0,1,3.06-5.83,9.47,9.47,0,0,1,1.78-1.94A18,18,0,0,1,184.56,132.44Z"/><path d="M183,183.63a18.62,18.62,0,0,1,1.8-4.93A40.1,40.1,0,0,1,187,175a61,61,0,0,1,4.68-5.77,60.67,60.67,0,0,1,5-5.82,47.56,47.56,0,0,0,5.48-6.33c1.74-2.27,3.59-4.38,5.33-6.65s1.51-.51.86,1a28.33,28.33,0,0,1-4.51,6.84c-1.88,2.22-4,4.22-5.71,6.08-3.09,3.44-4.31,4.89-7.18,8.49-.82,1-2,2.63-3.09,4.29a25.63,25.63,0,0,0-2.44,4.6c-.17.42-.33.85-.55,1.27s-.39.83-.58,1.21-.64.57-1,.88A4.07,4.07,0,0,1,183,183.63Z"/></g></svg>